<svg version="1.1" xmlns="http://www.w3.org/2000/svg" xmlns:xlink="http://www.w3.org/1999/xlink" x="0px" y="0px" viewBox="0 0 512 512" style="enable-background:new 0 0 512 512;" xml:space="preserve">
  <g transform="matrix(1,0,0,1,0,0)" name="Layer" jvs-layer-color="#fb0094" class="jvs-layer selected">
      <path fill="none" stroke="#ffffff" stroke-width="20" stroke-linecap="round" stroke-linejoin="miter" opacity="1" d="M 256.01251220703125 133.694580078125 L 256.01251220703125 256.8597106933594" transform="matrix(1 0 0 1 0 0)"></path>
      <path fill="none" stroke="#ffffff" stroke-width="20" stroke-linecap="round" stroke-linejoin="miter" opacity="1" d="M 256.01251220703125 133.694580078125 L 148.5191650390625 195.63990783691406" transform="matrix(1 0 0 1 0 0)"></path>
      <path fill="none" stroke="#ffffff" stroke-width="20" stroke-linecap="round" stroke-linejoin="miter" opacity="1" d="M 148.5191650390625 195.63990783691406 L 148.5191650390625 315.8901672363281" transform="matrix(1 0 0 1 0 0)"></path>
      <path fill="none" stroke="#ffffff" stroke-width="20" stroke-linecap="round" stroke-linejoin="miter" opacity="1" d="M 148.5191650390625 315.8901672363281 L 256.01251220703125 256.8597106933594" transform="matrix(1 0 0 1 0 0)"></path>
      <path fill="none" stroke="#ffffff" stroke-width="20" stroke-linecap="round" stroke-linejoin="miter" opacity="1" d="M 256.01251220703125 256.8597106933594 L 360.77301025390625 314.97576904296875" transform="matrix(1 0 0 1 0 0)"></path>
      <path fill="none" stroke="#ffffff" stroke-width="20" stroke-linecap="round" stroke-linejoin="miter" opacity="1" d="M 360.77301025390625 316.7807312011719 L 360.77301025390625 195.62295532226562" transform="matrix(1 0 0 1 0 -1.80497)"></path>
      <path fill="none" stroke="#ffffff" stroke-width="20" stroke-linecap="round" stroke-linejoin="miter" opacity="1" d="M 356.3966979980469 193.81797790527344 L 251.63621520996094 133.694580078125" transform="matrix(1 0 0 1 4.3763 0)"></path>
      <path fill="none" stroke="#ffffff" stroke-width="20" stroke-linecap="round" stroke-linejoin="miter" opacity="1" d="M 148.5191650390625 315.8901672363281 L 256.01251220703125 376.92108154296875" transform="matrix(1 0 0 1 0 0)"></path>
      <path fill="none" stroke="#ffffff" stroke-width="20" stroke-linecap="round" stroke-linejoin="miter" opacity="1" d="M 256.01251220703125 376.92108154296875 L 360.77301025390625 314.97576904296875" transform="matrix(1 0 0 1 0 0)"></path>
      <path fill="none" stroke="#ffffff" stroke-width="20" stroke-linecap="round" stroke-linejoin="miter" opacity="1" d="M 45.58060073852539 133.43365478515625 L 256.5890808105469 12.234564781188965" transform="matrix(1 0 0 1 0 0)"></path>
      <path fill="none" stroke="#ffffff" stroke-width="20" stroke-linecap="round" stroke-linejoin="miter" opacity="1" d="M 465.8536682128906 133.43365478515625 L 256.5890808105469 12.234564781188965" transform="matrix(1 0 0 1 0 0)"></path>
      <path fill="none" stroke="#ffffff" stroke-width="20" stroke-linecap="round" stroke-linejoin="miter" opacity="1" d="M 465.8536682128906 133.43365478515625 L 465.8536682128906 378.6709289550781" transform="matrix(1 0 0 1 0 0)"></path>
      <path fill="none" stroke="#ffffff" stroke-width="20" stroke-linecap="round" stroke-linejoin="miter" opacity="1" d="M 465.8536682128906 378.6709289550781 L 256.5890808105469 498.7747802734375" transform="matrix(1 0 0 1 0 0)"></path>
      <path fill="none" stroke="#ffffff" stroke-width="20" stroke-linecap="round" stroke-linejoin="miter" opacity="1" d="M 256.5890808105469 498.7747802734375 L 45.58060073852539 376.7037658691406" transform="matrix(1 0 0 1 0 0)"></path>
      <path fill="none" stroke="#ffffff" stroke-width="20" stroke-linecap="round" stroke-linejoin="miter" opacity="1" d="M 45.58060073852539 376.7037658691406 L 45.58060073852539 133.43365478515625" transform="matrix(1 0 0 1 0 0)"></path>
      <path fill="none" stroke="#ffffff" stroke-width="20" stroke-linecap="round" stroke-linejoin="miter" opacity="1" d="M 45.58061218261719 133.43365478515625 L 148.51913452148438 195.63990783691406" transform="matrix(1 0 0 1 12.389 9.29174)" stroke-dasharray="35"></path>
      <path fill="none" stroke="#ffffff" stroke-width="20" stroke-linecap="round" stroke-linejoin="miter" opacity="1" d="M 360.7729797363281 193.8179931640625 L 465.85369873046875 133.43365478515625" transform="matrix(1 0 0 1 0 0)" stroke-dasharray="35"></path>
      <path fill="none" stroke="#ffffff" stroke-width="20" stroke-linecap="round" stroke-linejoin="miter" opacity="1" d="M 256.01251220703125 376.92108154296875 L 256.5890808105469 498.7748107910156" transform="matrix(1 0 0 1 0 0)" stroke-dasharray="35"></path>
  </g>
</svg>
