<svg version="1.1" xmlns="http://www.w3.org/2000/svg" xmlns:xlink="http://www.w3.org/1999/xlink" x="0px" y="0px"
   viewBox="0 0 512 512" style="enable-background:new 0 0 512 512;" xml:space="preserve">
   <style>
     .color{stroke:#000000}
   </style>
  <g>
    <line x1="46" y1="136" x2="46" y2="376" class="color" style="stroke-width:25" stroke-linecap="round" />
    <line x1="256" y1="256" x2="256" y2="496" class="color" style="stroke-width:25" stroke-linecap="round" />
    <line x1="466" y1="136" x2="466" y2="376" class="color" style="stroke-width:25" stroke-linecap="round" />

    <line x1="46" y1="136" x2="256" y2="16" class="color" style="stroke-width:25" stroke-linecap="round" />
    <line x1="466" y1="136" x2="256" y2="16" class="color" style="stroke-width:25" stroke-linecap="round" />

    <line x1="256" y1="256" x2="46" y2="136" class="color" style="stroke-width:25" stroke-linecap="round" />
    <line x1="256" y1="256" x2="466" y2="136" class="color" style="stroke-width:25" stroke-linecap="round" />

    <line x1="46" y1="376" x2="256" y2="496" class="color" style="stroke-width:25" stroke-linecap="round" />
    <line x1="466" y1="376" x2="256" y2="496" class="color" style="stroke-width:25" stroke-linecap="round" />
  </g>
  <g class="top">
    <line x1="151" y1="76" x2="361" y2="196" class="color" style="stroke-width:25" stroke-linecap="round" />
    <line x1="151" y1="196" x2="361" y2="76" class="color" style="stroke-width:25" stroke-linecap="round" />
  </g>
  <g class="left">
    <line x1="151" y1="436" x2="151" y2="196" class="color" style="stroke-width:25" stroke-linecap="round" />
    <line x1="46" y1="256" x2="256" y2="376" class="color" style="stroke-width:25" stroke-linecap="round" />
  </g>
  <g class="right">
    <line x1="361" y1="436" x2="361" y2="196" class="color" style="stroke-width:25" stroke-linecap="round" />
    <line x1="466" y1="256" x2="256" y2="376" class="color" style="stroke-width:25" stroke-linecap="round" />
  </g>
</svg>
