<svg version="1.1" id="Capa_1" xmlns="http://www.w3.org/2000/svg" xmlns:xlink="http://www.w3.org/1999/xlink" x="0px" y="0px" viewBox="0 0 512.001 512.001" style="enable-background:new 0 0 512.001 512.001;" xml:space="preserve">
  <g transform="matrix(1,0,0,1,0,0)" name="Layer" jvs-layer-color="#fb0094" class="jvs-layer selected"><path fill="rgba(219,227,244,1)" stroke="rgba(0,0,0,1)" stroke-width="0" stroke-linecap="round" stroke-linejoin="miter" opacity="1" d="M 445.8501281738281 47.134666442871094 L 206.55288696289062 164.9974822998047 L 267.2701110839844 197.1418914794922 L 149.40728759765625 271.2525939941406 L 211.01739501953125 304.2899169921875 L 51.18827438354492 442.6894226074219 L 294.0570983886719 306.9685974121094 L 237.8043975830078 276.6099853515625 L 362.8104248046875 196.24899291992188 L 307.4505920410156 168.569091796875 L 445.8501281738281 47.134666442871094 Z" transform="matrix(1 0 0 1 29.4657 18.7509)"></path><path fill="rgba(176,192,223,1)" stroke="rgba(0,0,0,1)" stroke-width="5" stroke-linecap="round" stroke-linejoin="miter" opacity="1" d="M 445.8501281738281 47.134666442871094 L 206.55288696289062 164.9974822998047 L 267.2701110839844 197.1418914794922 L 149.40728759765625 271.2525939941406 L 211.01739501953125 304.2899169921875 L 51.18827438354492 442.6894226074219 L 294.0570983886719 306.9685974121094 L 237.8043975830078 276.6099853515625 L 362.8104248046875 196.24899291992188 L 307.4505920410156 168.569091796875 L 445.8501281738281 47.134666442871094 Z" transform="matrix(1 0 0 1 -0.837312 20.5367)"></path></g>
</svg>
