<svg version="1.1" id="secutiyu" xmlns="http://www.w3.org/2000/svg" xmlns:xlink="http://www.w3.org/1999/xlink" x="0px" y="0px" viewBox="0 -5 347.97 357.97" style="enable-background:new 0 -5 347.97 357.97;" xml:space="preserve">
    <path fill="#B0C0DF" style="transform: translateX(8%)"  d="M317.309,54.367C257.933,54.367,212.445,37.403,173.98,0C135.519,37.403,90.033,54.367,30.662,54.367 c0,97.405-20.155,236.937,143.317,293.604C337.463,291.305,317.309,151.773,317.309,54.367z"/>
    <path fill="#DBE3F4" stroke="rgba(0,0,0,1)" stroke-width="5" stroke-linecap="round" stroke-linejoin="miter" opacity="1" d="M317.309,54.367C257.933,54.367,212.445,37.403,173.98,0C135.519,37.403,90.033,54.367,30.662,54.367 c0,97.405-20.155,236.937,143.317,293.604C337.463,291.305,317.309,151.773,317.309,54.367z"/>
    <path fill="#B0C0DF" stroke="rgba(0,0,0,1)" stroke-width="5" stroke-linecap="round" stroke-linejoin="miter" opacity="1" d="M162.107,225.773l-47.749-47.756 l21.379-21.378l26.37,26.376l50.121-50.122l21.378,21.378L162.107,225.773z"/>
</svg>
