<svg version="1.1" id="Capa_1" xmlns="http://www.w3.org/2000/svg" xmlns:xlink="http://www.w3.org/1999/xlink" x="0px" y="0px" viewBox="0 0 512 512" style="enable-background:new 0 0 512 512;" xml:space="preserve">
  <g transform="matrix(1,0,0,1,0,0)" name="Layer" jvs-layer-color="#fb0094" class="jvs-layer selected"><path fill="rgba(176,192,223,1)" stroke="rgba(0,0,0,1)" stroke-width="0.00" stroke-linecap="round" stroke-linejoin="round" opacity="1" d="M -183.7670440673828 -10.790290832519531 L -370.04364013671875 92.12494659423828 L -370.04364013671875 342.2852478027344 L -189.94195556640625 444.1036376953125 L -5.723741054534912 338.0923767089844 L -7.781954765319824 91.09579467773438 L -183.7670440673828 -10.790290832519531 Z" transform="matrix(1 0 0 1 475.104 37.4705)"></path><path fill="rgba(176,192,223,1)" stroke="rgba(0,0,0,1)" stroke-width="0" stroke-linecap="round" stroke-linejoin="round" opacity="1" d="M 241.8483428955078 217.81797790527344 L 241.8483428955078 465.85223388671875" transform="matrix(1 0 0 1 49.4191 14.4168)"></path><path fill="rgba(219,227,244,1)" stroke="rgba(0,0,0,1)" stroke-width="5.216734779511964" stroke-linecap="round" stroke-linejoin="round" opacity="1" d="M 491.76702880859375 169.52362060546875 L 309.6070251464844 274.4971923828125 L 309.6070251464844 522.5314331054688 L 493.8252868652344 416.52020263671875 L 491.76702880859375 169.52362060546875 Z" transform="matrix(1 0 0 1 -74.2099 -41.2083)"></path><path fill="rgba(219,227,244,1)" stroke="rgba(0,0,0,1)" stroke-width="5.216734779511964" stroke-linecap="round" stroke-linejoin="round" opacity="1" d="M 309.6070251464844 274.4971923828125 L 129.50535583496094 170.55276489257812 L 129.50535583496094 420.71307373046875 L 309.6070251464844 522.5314331054688 L 309.6070251464844 274.4971923828125 Z" transform="matrix(1 0 0 1 -74.2099 -41.2083)"></path><path fill="rgba(219,227,244,1)" stroke="rgba(0,0,0,1)" stroke-width="5.216734779511964" stroke-linecap="round" stroke-linejoin="round" opacity="1" d="M 129.50535583496094 170.55276489257812 L 315.7819519042969 67.63752746582031 L 491.76702880859375 169.52362060546875 L 309.6070251464844 274.4971923828125 L 129.50535583496094 170.55276489257812 Z" transform="matrix(1 0 0 1 -74.2099 -41.2083)"></path><ellipse cx="209.246" cy="237.301" rx="11.9217" ry="21.2073" fill="rgba(176,192,223,1)" stroke="rgba(0,0,0,1)" stroke-width="5.866990816871714" stroke-linecap="round" stroke-linejoin="round" opacity="1" transform="matrix(0.845489 -0.533993 0.533993 0.845489 -206.175 107.039)"></ellipse><ellipse cx="209.246" cy="237.301" rx="11.9217" ry="21.2073" fill="rgba(176,192,223,1)" stroke="rgba(0,0,0,1)" stroke-width="5.866991120015166" stroke-linecap="round" stroke-linejoin="round" opacity="1" transform="matrix(0.845489 -0.533993 0.533993 0.845489 -205.929 273.318)"></ellipse><path fill="rgba(176,192,223,1)" stroke="rgba(0,0,0,1)" stroke-width="5.216734779511958" stroke-linecap="round" stroke-linejoin="round" opacity="1" d="M 129.50535583496094 170.55276489257812 L 129.50535583496094 255.87864685058594 L 309.8006591796875 358.3214416503906 L 492.4981384277344 254.93443298339844 L 491.76702880859375 169.52362060546875 L 309.6070251464844 274.49713134765625 L 129.50535583496094 170.55276489257812 Z" transform="matrix(1 0 0 1 -74.1226 42.5656)"></path><path fill="none" stroke="rgba(0,0,0,1)" stroke-width="5.216734779511964" stroke-linecap="round" stroke-linejoin="round" opacity="1" d="M 216.16680908203125 246.42372131347656 L 216.16680908203125 279.8857421875" transform="matrix(1 0 0 1 -74.2099 -41.2083)"></path><path fill="none" stroke="rgba(0,0,0,1)" stroke-width="5.216734779511964" stroke-linecap="round" stroke-linejoin="round" opacity="1" d="M 216.16680908203125 246.4237060546875 L 216.16680908203125 279.8857421875" transform="matrix(1 0 0 1 -56.6044 -28.8902)"></path><path fill="none" stroke="rgba(0,0,0,1)" stroke-width="5.216734779511964" stroke-linecap="round" stroke-linejoin="round" opacity="1" d="M 216.16680908203125 246.42372131347656 L 216.16680908203125 279.8857116699219" transform="matrix(1 0 0 1 -38.1187 -16.5664)"></path><path fill="none" stroke="rgba(0,0,0,1)" stroke-width="5.216734779511964" stroke-linecap="round" stroke-linejoin="round" opacity="1" d="M 216.16680908203125 246.42373657226562 L 216.16680908203125 279.8857421875" transform="matrix(1 0 0 1 -17.8724 -4.24246)"></path><path fill="none" stroke="rgba(0,0,0,1)" stroke-width="5.216734779511964" stroke-linecap="round" stroke-linejoin="round" opacity="1" d="M 216.16680908203125 246.4237518310547 L 216.16680908203125 279.8857421875" transform="matrix(1 0 0 1 -74.2099 41.5346)"></path><path fill="none" stroke="rgba(0,0,0,1)" stroke-width="5.216734779511964" stroke-linecap="round" stroke-linejoin="round" opacity="1" d="M 216.16680908203125 246.4237060546875 L 216.16680908203125 279.88568115234375" transform="matrix(1 0 0 1 -56.6045 53.8527)"></path><path fill="none" stroke="rgba(0,0,0,1)" stroke-width="5.216734779511964" stroke-linecap="round" stroke-linejoin="round" opacity="1" d="M 216.16680908203125 246.4237060546875 L 216.16680908203125 279.8857116699219" transform="matrix(1 0 0 1 -38.1187 66.1765)"></path><path fill="none" stroke="rgba(0,0,0,1)" stroke-width="5.216734779511964" stroke-linecap="round" stroke-linejoin="round" opacity="1" d="M 216.1667938232422 246.42372131347656 L 216.1667938232422 279.88568115234375" transform="matrix(1 0 0 1 -17.8724 78.5003)"></path><path fill="none" stroke="rgba(0,0,0,1)" stroke-width="5.216734779511964" stroke-linecap="round" stroke-linejoin="round" opacity="1" d="M 216.16680908203125 246.42373657226562 L 216.16680908203125 279.8857116699219" transform="matrix(1 0 0 1 -74.2099 125.161)"></path><path fill="none" stroke="rgba(0,0,0,1)" stroke-width="5.216734779511964" stroke-linecap="round" stroke-linejoin="round" opacity="1" d="M 216.16680908203125 246.42373657226562 L 216.16680908203125 279.8857421875" transform="matrix(1 0 0 1 -56.6045 137.479)"></path><path fill="none" stroke="rgba(0,0,0,1)" stroke-width="5.216734779511964" stroke-linecap="round" stroke-linejoin="round" opacity="1" d="M 216.16680908203125 246.4237518310547 L 216.16680908203125 279.8857421875" transform="matrix(1 0 0 1 -38.1187 149.803)"></path><path fill="none" stroke="rgba(0,0,0,1)" stroke-width="5.216734779511964" stroke-linecap="round" stroke-linejoin="round" opacity="1" d="M 216.1667938232422 246.4237060546875 L 216.1667938232422 279.8857421875" transform="matrix(1 0 0 1 -17.8724 162.127)"></path><ellipse cx="209.247" cy="237.301" rx="11.9217" ry="21.2073" fill="rgba(219,227,244,1)" stroke="rgba(0,0,0,1)" stroke-width="5.866991280737352" stroke-linecap="round" stroke-linejoin="round" opacity="1" transform="matrix(0.845489 -0.533993 0.533993 0.845489 -207.303 189.164)"></ellipse><path fill="rgba(219,227,244,1)" stroke="rgba(0,0,0,1)" stroke-width="5.217768287658691" stroke-linecap="round" stroke-linejoin="round" opacity="1" d="M 241.8483428955078 217.81797790527344 L 241.8483428955078 465.85223388671875" transform="matrix(1 0 0 1 -6.4512 15.4709)"></path><ellipse cx="394.249" cy="390.289" rx="82.8115" ry="82.8116" fill="rgba(219,227,244,1)" stroke="rgba(0,0,0,1)" stroke-width="5.22" stroke-linecap="round" stroke-linejoin="round" opacity="1" transform="matrix(1 0 0 1 -0.159913 6.86536)"></ellipse><path fill="rgba(176,192,223,1)" stroke="rgba(0,0,0,1)" stroke-width="4.981283826828003" stroke-linecap="round" stroke-linejoin="round" opacity="1" d="M 405.6451721191406 326.0869140625 L 380.78179931640625 350.9608154296875 L 354.725341796875 325.5838623046875 L 333.3860168457031 346.9231872558594 L 359.0628662109375 372.2987060546875 L 332.38006591796875 399.35205078125 L 353.71942138671875 420.69140625 L 380.4007568359375 394.01763916015625 L 406.6512145996094 420.18841552734375 L 427.9905700683594 398.8490905761719 L 402.11968994140625 372.67974853515625 L 426.98455810546875 347.42626953125 L 405.6451721191406 326.0869140625 Z" transform="matrix(1 0 0 1 16.6491 26.5431)"></path></g>
</svg>
